<svg width="145" height="48" viewBox="0 0 145 48" fill="none" xmlns="http://www.w3.org/2000/svg">
<g clip-path="url(#clip0_1_2783)">
<path d="M133.473 0H11.5266C11.0861 0 10.6456 0 10.2051 0C9.83797 0 9.47089 0 9.1038 0C8.2962 0 7.48861 0.0727273 6.68101 0.218182C5.87342 0.363636 5.13924 0.654545 4.40506 1.01818C3.67089 1.38182 3.01013 1.81818 2.42278 2.4C1.83544 2.98182 1.39494 3.63636 1.02785 4.36364C0.66076 5.09091 0.440506 5.81818 0.293671 6.61818C0.0734177 7.41818 0 8.21818 0 9.01818C0 9.38182 0 9.74545 0 10.1091V37.8909C0 38.2545 0 38.6182 0 38.9818C0 39.7818 0.0734177 40.5818 0.220253 41.3818C0.367089 42.1818 0.587342 42.9818 0.95443 43.6364C1.32152 44.3636 1.83544 45.0182 2.34937 45.6C3.01013 46.1818 3.67089 46.6909 4.40506 47.0545C5.13924 47.4182 5.87342 47.7091 6.68101 47.7818C7.48861 47.9273 8.2962 48 9.1038 48C9.47089 48 9.83797 48 10.2051 48C10.6456 48 11.0861 48 11.5266 48H133.473C133.914 48 134.354 48 134.795 48C135.162 48 135.529 48 135.896 48C136.704 48 137.511 47.9273 138.319 47.7818C139.127 47.6364 139.934 47.4182 140.595 47.0545C141.329 46.6909 141.99 46.1818 142.577 45.6727C143.165 45.0909 143.605 44.4364 144.046 43.7091C144.413 42.9818 144.633 42.2545 144.78 41.4545C144.927 40.6545 145 39.8545 145 39.0545C145 38.6909 145 38.3273 145 37.9636C145 37.5273 145 37.0909 145 36.6545V11.4182C145 10.9818 145 10.5455 145 10.1091C145 9.74545 145 9.38182 145 9.01818C145 8.21818 144.927 7.41818 144.78 6.61818C144.633 5.81818 144.413 5.09091 144.046 4.36364C143.311 2.90909 142.137 1.74545 140.668 1.01818C139.934 0.654545 139.127 0.436364 138.392 0.290909C137.585 0.145455 136.777 0.0727273 135.97 0.0727273C135.603 0.0727273 135.235 0.0727273 134.868 0.0727273C134.354 0 133.914 0 133.473 0Z" fill="#A5A4A5"/>
<path d="M10.205 46.9817C9.83796 46.9817 9.47087 46.9817 9.10378 46.9817C8.3696 46.9817 7.56201 46.909 6.82783 46.7635C6.09366 46.6181 5.4329 46.3999 4.84555 46.109C4.18479 45.8181 3.67087 45.3817 3.15695 44.8726C2.64302 44.3635 2.20252 43.8544 1.90884 43.1999C1.61517 42.5453 1.39492 41.8908 1.24809 41.2362C1.10125 40.509 1.02783 39.709 1.02783 38.9817C1.02783 38.7635 1.02783 37.8908 1.02783 37.8908V10.109C1.02783 10.109 1.02783 9.30898 1.02783 9.01807C1.02783 8.29079 1.10125 7.49079 1.24809 6.76352C1.39492 6.03625 1.61517 5.3817 1.90884 4.79988C2.20252 4.14534 2.64302 3.63625 3.15695 3.12716C3.67087 2.61807 4.25821 2.25443 4.84555 1.89079C5.50631 1.59988 6.16707 1.3817 6.82783 1.23625C7.56201 1.09079 8.3696 1.01807 9.10378 1.01807H10.205H134.722H135.823C136.557 1.01807 137.365 1.09079 138.099 1.23625C138.833 1.3817 139.494 1.59988 140.154 1.89079C141.403 2.54534 142.43 3.56352 143.091 4.79988C143.385 5.45443 143.605 6.10898 143.752 6.76352C143.899 7.49079 143.972 8.29079 143.972 9.01807C143.972 9.3817 143.972 9.74534 143.972 10.109C143.972 10.5453 143.972 10.9817 143.972 11.4181V36.509C143.972 36.9453 143.972 37.3817 143.972 37.8181C143.972 38.1817 143.972 38.5453 143.972 38.909C143.972 39.6362 143.899 40.3635 143.752 41.1635C143.605 41.8908 143.385 42.5453 143.091 43.1999C142.797 43.7817 142.357 44.3635 141.843 44.8726C141.329 45.3817 140.742 45.8181 140.154 46.109C139.494 46.3999 138.833 46.6181 138.099 46.7635C137.365 46.909 136.557 46.9817 135.823 46.9817C135.456 46.9817 135.089 46.9817 134.722 46.9817H133.4H10.205Z" fill="black"/>
<path d="M30.0279 24.3635C30.0279 22.3271 31.1291 20.4362 32.8911 19.3453C31.7899 17.7453 29.9544 16.7999 28.0456 16.7271C25.9899 16.509 24.0076 17.9635 22.9798 17.9635C21.9519 17.9635 20.3367 16.7999 18.5747 16.7999C16.2987 16.8726 14.2431 18.109 13.1418 20.0726C10.7924 24.0726 12.5544 29.9635 14.757 33.2362C15.8582 34.8362 17.1798 36.5817 18.9418 36.509C20.6304 36.4362 21.2177 35.418 23.2734 35.418C25.2557 35.418 25.843 36.509 27.6051 36.4362C29.4405 36.4362 30.5418 34.8362 31.643 33.2362C32.4506 32.0726 33.038 30.8362 33.4785 29.5271C31.4228 28.7271 30.0279 26.6908 30.0279 24.3635Z" fill="white"/>
<path d="M26.7239 14.6908C27.6783 13.5272 28.1923 11.9999 28.0454 10.4727C26.5771 10.6181 25.1821 11.3454 24.1543 12.4363C23.1999 13.5272 22.6859 14.9817 22.7594 16.4363C24.3011 16.509 25.7695 15.8545 26.7239 14.6908Z" fill="white"/>
<path d="M51.2455 32.5819H45.5189L44.124 36.5819H41.7012L47.1341 21.6729H49.6303L55.0632 36.5819H52.567L51.2455 32.5819ZM46.1062 30.691H50.6581L48.3822 24.1456H48.3088L46.1062 30.691Z" fill="white"/>
<path d="M66.8102 31.2C66.8102 34.5454 64.9748 36.7273 62.2583 36.7273C60.8634 36.8 59.4684 36.0727 58.8077 34.8363H58.7343V40.2182H56.5317V25.7454H58.7343V27.5636C59.4684 26.3273 60.79 25.6 62.2583 25.6727C64.9748 25.6 66.8102 27.7818 66.8102 31.2ZM64.5343 31.2C64.5343 29.0182 63.3596 27.5636 61.671 27.5636C59.9824 27.5636 58.8077 29.0182 58.8077 31.2C58.8077 33.3818 59.9824 34.8363 61.671 34.8363C63.3596 34.8363 64.5343 33.3818 64.5343 31.2Z" fill="white"/>
<path d="M78.9242 31.2C78.9242 34.5454 77.0887 36.7273 74.3723 36.7273C72.9773 36.8 71.5824 36.0727 70.9216 34.8363H70.8482V40.2182H68.5723V25.7454H70.7748V27.5636H70.8482C71.5824 26.3273 72.9039 25.6 74.3723 25.6727C77.0887 25.6 78.9242 27.7818 78.9242 31.2ZM76.5748 31.2C76.5748 29.0182 75.4001 27.5636 73.7115 27.5636C72.0229 27.5636 70.8482 29.0182 70.8482 31.2C70.8482 33.3818 72.0229 34.8363 73.7115 34.8363C75.4735 34.8363 76.5748 33.3818 76.5748 31.2Z" fill="white"/>
<path d="M86.9263 32.4364C87.0732 33.891 88.5415 34.9091 90.5238 34.9091C92.4327 34.9091 93.7542 33.9637 93.7542 32.5819C93.7542 31.4182 92.9466 30.7637 90.9643 30.2546L88.982 29.8182C86.1922 29.1637 84.9441 27.8546 84.9441 25.8182C84.9441 23.2728 87.22 21.4546 90.4504 21.4546C93.6074 21.4546 95.8099 23.2 95.8833 25.8182H93.6074C93.4605 24.3637 92.2124 23.4182 90.4504 23.4182C88.6884 23.4182 87.3668 24.291 87.3668 25.6728C87.3668 26.691 88.1744 27.3455 90.0833 27.8546L91.7719 28.291C94.8555 29.0182 96.177 30.2546 96.177 32.4364C96.177 35.2 93.901 36.9455 90.377 36.9455C87.0732 36.9455 84.7972 35.2728 84.6504 32.5091L86.9263 32.4364Z" fill="white"/>
<path d="M101.022 23.1999V25.7454H103.078V27.4908H101.022V33.4545C101.022 34.3999 101.463 34.8363 102.344 34.8363C102.564 34.8363 102.858 34.8363 103.078 34.7636V36.509C102.638 36.5817 102.271 36.6545 101.83 36.5817C99.6275 36.5817 98.7465 35.7817 98.7465 33.6727V27.4181H97.1313V25.6727H98.7465V23.1272H101.022V23.1999Z" fill="white"/>
<path d="M104.327 31.2001C104.327 27.7819 106.382 25.6001 109.539 25.6001C112.696 25.6001 114.752 27.7819 114.752 31.2001C114.752 34.6183 112.77 36.8001 109.539 36.8001C106.309 36.7274 104.327 34.6183 104.327 31.2001ZM112.403 31.2001C112.403 28.8728 111.301 27.491 109.466 27.491C107.63 27.491 106.529 28.8728 106.529 31.2001C106.529 33.5274 107.63 34.9092 109.466 34.9092C111.301 34.9092 112.403 33.5274 112.403 31.2001Z" fill="white"/>
<path d="M116.587 25.7454H118.717V27.5636H118.79C119.084 26.3999 120.185 25.5272 121.433 25.5999C121.727 25.5999 121.947 25.5999 122.241 25.6727V27.7818C121.947 27.709 121.58 27.6363 121.213 27.6363C119.965 27.5636 118.937 28.5818 118.863 29.8181C118.863 29.9636 118.863 30.0363 118.863 30.1818V36.6545H116.587V25.7454Z" fill="white"/>
<path d="M132.592 33.3819C132.299 35.3455 130.316 36.7274 127.894 36.7274C124.737 36.7274 122.754 34.6183 122.754 31.2001C122.754 27.7819 124.737 25.6001 127.82 25.6001C130.83 25.6001 132.739 27.6365 132.739 30.9819V31.7819H124.957V31.9274C124.81 33.4546 125.985 34.8365 127.527 34.9819C127.673 34.9819 127.747 34.9819 127.894 34.9819C128.995 35.0546 130.023 34.4728 130.463 33.4546L132.592 33.3819ZM124.957 30.1819H130.463C130.537 28.7274 129.435 27.491 127.967 27.4183C127.894 27.4183 127.82 27.4183 127.747 27.4183C126.205 27.4183 124.957 28.6546 124.957 30.1819Z" fill="white"/>
<path d="M42.9492 14.0362C42.9492 11.709 44.1973 10.2544 46.1796 10.2544C47.648 10.1817 48.9695 11.2726 49.1897 12.7271H48.0885C47.8682 11.8544 47.134 11.2726 46.1796 11.2726C44.8581 11.2726 44.0505 12.2908 44.0505 13.9635C44.0505 15.6362 44.8581 16.6544 46.1796 16.6544C47.0606 16.7271 47.8682 16.1453 48.0885 15.3453H49.1897C48.9695 16.7999 47.648 17.818 46.1796 17.6726C44.1973 17.818 42.9492 16.3635 42.9492 14.0362Z" fill="white"/>
<path d="M50.4378 14.909C50.2909 13.5272 51.3188 12.2181 52.7871 12.1454C54.1821 12 55.5036 13.0181 55.577 14.4727C55.577 14.6181 55.577 14.7636 55.577 14.9818C55.7239 16.3636 54.696 17.6727 53.2277 17.7454C51.8327 17.8909 50.5112 16.8727 50.4378 15.4181C50.4378 15.2727 50.4378 15.1272 50.4378 14.909ZM54.4758 14.909C54.4758 13.7454 53.9618 13.0181 53.0074 13.0181C52.053 13.0181 51.539 13.6727 51.539 14.909C51.539 16.0727 52.053 16.8 53.0074 16.8C53.9618 16.8 54.4758 16.1454 54.4758 14.909Z" fill="white"/>
<path d="M57.0456 12.2181H58.0734V13.0909H58.1468C58.4405 12.4363 59.1013 12.0727 59.762 12.1454C60.7165 12.0727 61.5975 12.8 61.6709 13.7454C61.6709 13.8909 61.6709 14.0363 61.6709 14.109V17.6H60.5696V14.4C60.5696 13.5272 60.2025 13.0909 59.395 13.0909C58.7342 13.0909 58.1469 13.6 58.0734 14.2545C58.0734 14.3272 58.0734 14.4 58.0734 14.4727V17.6H56.9722L57.0456 12.2181Z" fill="white"/>
<path d="M65.3419 12.1453C66.59 12.1453 67.3976 12.7271 67.471 13.6725H66.4431C66.3697 13.3089 65.9292 13.018 65.3419 13.018C64.7545 13.018 64.314 13.3089 64.314 13.7453C64.314 14.0362 64.6077 14.2544 65.195 14.3998L66.076 14.618C67.1039 14.8362 67.6178 15.2725 67.6178 16.0725C67.6178 17.0907 66.6634 17.7453 65.3419 17.7453C64.0203 17.7453 63.2128 17.1634 63.0659 16.218H64.1672C64.3874 16.6544 64.8279 16.9453 65.3419 16.8725C66.0026 16.8725 66.5165 16.5816 66.5165 16.1453C66.5165 15.8544 66.2963 15.6362 65.709 15.4907L64.6811 15.2725C63.6533 15.0544 63.1393 14.5453 63.1393 13.7453C63.2128 12.7998 64.0938 12.1453 65.3419 12.1453Z" fill="white"/>
<path d="M68.939 11.3453L70.1871 9.67261H71.4352L70.0402 11.3453H68.939ZM69.0124 12.2181H70.1136V17.5999H69.0124V12.2181Z" fill="white"/>
<path d="M71.8025 18.1816H72.9037C72.9771 18.5452 73.4176 18.8361 74.1518 18.8361C75.0328 18.8361 75.5468 18.3998 75.5468 17.6725V16.6543H75.4733C75.1063 17.2361 74.4455 17.5998 73.7847 17.5271C72.3898 17.5271 71.5088 16.4361 71.5088 14.8361C71.5088 13.1634 72.3898 12.0725 73.7847 12.0725C74.5189 12.0725 75.1797 12.4361 75.4733 13.018H75.5468V12.1452H76.5746V17.5998C76.5746 18.8361 75.6202 19.6361 74.0784 19.6361C72.7569 19.7089 71.8759 19.1271 71.8025 18.1816ZM75.6202 14.9089C75.6202 13.818 75.0328 13.1634 74.1518 13.1634C73.1974 13.1634 72.6835 13.818 72.6835 14.9089C72.6835 15.9998 73.1974 16.6543 74.1518 16.6543C75.0328 16.6543 75.6202 15.9271 75.6202 14.9089Z" fill="white"/>
<path d="M82.9617 17.6726H81.9339V16.7999H81.8605C81.5668 17.4544 80.906 17.818 80.2453 17.7453C79.2909 17.818 78.4098 17.0908 78.3364 16.1453C78.3364 15.9999 78.3364 15.9271 78.3364 15.7817V12.2908H79.4377V15.4908C79.4377 16.3635 79.8048 16.7999 80.6124 16.7999C81.2731 16.8726 81.9339 16.3635 81.9339 15.709C81.9339 15.6362 81.9339 15.5635 81.9339 15.418V12.2908H83.0352L82.9617 17.6726Z" fill="white"/>
<path d="M89.276 16.218C88.9823 17.2362 87.9545 17.8907 86.9266 17.818C85.5317 17.818 84.4304 16.7998 84.357 15.418C84.357 15.2725 84.357 15.1271 84.357 14.9816C84.1367 13.5998 85.1646 12.3634 86.4861 12.1453C86.6329 12.1453 86.7064 12.1453 86.8532 12.1453C88.395 12.1453 89.276 13.1634 89.276 14.8362V15.1998H85.4583V15.2725C85.3848 16.0725 85.9722 16.7271 86.7798 16.7998C86.8532 16.7998 86.8532 16.7998 86.9266 16.7998C87.4405 16.8725 87.9545 16.5816 88.2481 16.1453L89.276 16.218ZM85.5317 14.4725H88.3215C88.395 13.7453 87.8076 13.1634 87.0734 13.0907C87 13.0907 87 13.0907 86.9266 13.0907C86.119 13.018 85.5317 13.6725 85.5317 14.4725C85.5317 14.3998 85.5317 14.3998 85.5317 14.4725Z" fill="white"/>
<path d="M90.8911 10.1089H91.9924V17.5998H90.8911V10.1089Z" fill="white"/>
<path d="M93.4608 14.909C93.314 13.5272 94.3418 12.2181 95.8102 12.1454C97.2051 12 98.5267 13.0181 98.6001 14.4727C98.6001 14.6181 98.6001 14.7636 98.6001 14.9818C98.7469 16.3636 97.7191 17.6727 96.2507 17.7454C94.7823 17.8181 93.5342 16.8727 93.4608 15.4181C93.3874 15.2727 93.3874 15.1272 93.4608 14.909ZM97.4988 14.909C97.4988 13.7454 96.9849 13.0181 96.0305 13.0181C95.076 13.0181 94.5621 13.6727 94.5621 14.909C94.5621 16.0727 95.076 16.8 96.0305 16.8C96.9115 16.8 97.4988 16.1454 97.4988 14.909Z" fill="white"/>
<path d="M107.63 16.218C107.337 17.2362 106.309 17.8907 105.281 17.818C103.886 17.818 102.785 16.7998 102.711 15.418C102.711 15.2725 102.711 15.1271 102.711 14.9816C102.491 13.5998 103.519 12.3634 104.841 12.1453C104.987 12.1453 105.061 12.1453 105.208 12.1453C106.749 12.1453 107.63 13.1634 107.63 14.8362V15.1998H103.813V15.2725C103.739 16.0725 104.327 16.7271 105.134 16.7998C105.208 16.7998 105.208 16.7998 105.281 16.7998C105.795 16.8725 106.309 16.5816 106.603 16.1453L107.63 16.218ZM103.813 14.4725H106.603C106.676 13.7453 106.089 13.1634 105.355 13.0907C105.281 13.0907 105.281 13.0907 105.208 13.0907C104.474 13.018 103.813 13.6725 103.813 14.4725C103.813 14.3998 103.813 14.3998 103.813 14.4725Z" fill="white"/>
<path d="M109.099 12.2181H110.127V13.0909H110.2C110.494 12.4363 111.155 12.0727 111.815 12.1454C112.77 12.0727 113.651 12.8 113.724 13.7454C113.724 13.8909 113.724 14.0363 113.724 14.109V17.6H112.623V14.4C112.623 13.5272 112.256 13.0909 111.448 13.0909C110.787 13.0909 110.2 13.6 110.127 14.2545C110.127 14.3272 110.127 14.4 110.127 14.4727V17.6H109.025L109.099 12.2181Z" fill="white"/>
<path d="M122.975 16.218C122.681 17.2362 121.653 17.8907 120.625 17.818C119.23 17.818 118.129 16.7998 118.056 15.418C118.056 15.2725 118.056 15.1271 118.056 14.9816C117.835 13.5998 118.863 12.3634 120.185 12.1453C120.332 12.1453 120.405 12.1453 120.552 12.1453C122.094 12.1453 122.975 13.1634 122.975 14.8362V15.1998H119.157V15.2725C119.084 16.0725 119.671 16.7271 120.479 16.7998C120.552 16.7998 120.552 16.7998 120.625 16.7998C121.139 16.8725 121.653 16.5816 121.947 16.1453L122.975 16.218ZM119.23 14.4725H122.02C122.094 13.7453 121.506 13.1634 120.772 13.0907C120.699 13.0907 120.699 13.0907 120.625 13.0907C119.818 13.018 119.23 13.6725 119.23 14.4725C119.23 14.3998 119.23 14.3998 119.23 14.4725Z" fill="white"/>
<path d="M124.516 10.1089H125.617V17.5998H124.516V10.1089Z" fill="white"/>
</g>
<defs>
<clipPath id="clip0_1_2783">
<rect width="145" height="48" fill="white"/>
</clipPath>
</defs>
</svg>
