<svg width="162" height="48" viewBox="0 0 162 48" fill="none" xmlns="http://www.w3.org/2000/svg">
<g clip-path="url(#clip0_1_2750)">
<path d="M156.038 48H6.03501C2.69031 48 0 45.3091 0 42.0364V6.03636C0 2.69091 2.69031 0 6.03501 0H156.038C159.31 0 162.073 2.69091 162.073 6.03636V42.0364C162 45.3091 159.31 48 156.038 48Z" fill="black"/>
<path d="M156.038 0.945455C158.801 0.945455 161.055 3.2 161.055 5.96364V41.9636C161.055 44.7273 158.801 46.9818 156.038 46.9818H6.03501C3.27199 46.9818 1.01795 44.7273 1.01795 41.9636V6.03636C1.01795 3.27273 3.27199 1.01818 6.03501 1.01818H156.038V0.945455ZM156.038 0H6.03501C2.69031 0 0 2.69091 0 6.03636V42.0364C0 45.3091 2.69031 48 6.03501 48H156.038C159.31 48 162.073 45.3091 162.073 41.9636V6.03636C162 2.69091 159.31 0 156.038 0Z" fill="#A5A4A5"/>
<path d="M81.7996 26.109C78.9639 26.109 76.7098 28.2908 76.7098 31.1999C76.7098 34.109 79.0366 36.2908 81.7996 36.2908C84.6353 36.2908 86.8894 34.109 86.8894 31.1999C86.8894 28.2908 84.5626 26.109 81.7996 26.109ZM81.7996 34.3272C80.2727 34.3272 78.8912 33.0181 78.8912 31.1999C78.8912 29.3817 80.2 28.0726 81.7996 28.0726C83.3992 28.0726 84.708 29.309 84.708 31.1999C84.6353 33.0181 83.3265 34.3272 81.7996 34.3272ZM70.6021 26.109C67.7664 26.109 65.5124 28.2908 65.5124 31.1999C65.5124 34.109 67.8391 36.2908 70.6021 36.2908C73.4378 36.2908 75.6919 34.109 75.6919 31.1999C75.6919 28.2908 73.4378 26.109 70.6021 26.109ZM70.6021 34.3272C69.0752 34.3272 67.6937 33.0181 67.6937 31.1999C67.6937 29.3817 69.0025 28.0726 70.6021 28.0726C72.129 28.0726 73.5106 29.309 73.5106 31.1999C73.5106 33.0181 72.129 34.3272 70.6021 34.3272ZM57.296 27.709V29.8908H62.4585C62.3131 31.1272 61.8768 31.9999 61.2951 32.5817C60.568 33.309 59.3319 34.1817 57.296 34.1817C54.0967 34.1817 51.6246 31.5636 51.6246 28.3636C51.6246 25.1636 54.0967 22.6181 57.296 22.6181C59.0411 22.6181 60.2772 23.2726 61.2224 24.1454L62.7493 22.6181C61.4405 21.3817 59.7682 20.4363 57.296 20.4363C52.9334 20.4363 49.2251 23.9999 49.2251 28.3636C49.2251 32.7272 52.9334 36.2908 57.296 36.2908C59.6228 36.2908 61.4405 35.4908 62.822 34.0363C64.2763 32.5817 64.7125 30.6181 64.7125 28.9454C64.7125 28.4363 64.6398 27.9999 64.5671 27.5636H57.296V27.709ZM111.684 29.3817C111.248 28.2181 109.939 26.109 107.321 26.109C104.704 26.109 102.522 28.1454 102.522 31.1999C102.522 34.0363 104.704 36.2908 107.612 36.2908C109.939 36.2908 111.32 34.8363 111.902 34.0363L110.157 32.8726C109.575 33.7454 108.775 34.2545 107.612 34.2545C106.449 34.2545 105.649 33.7454 105.14 32.7272L111.975 29.8908L111.684 29.3817ZM104.704 31.0545C104.631 29.0908 106.23 28.0726 107.394 28.0726C108.266 28.0726 109.066 28.509 109.284 29.1636L104.704 31.0545ZM99.1775 35.9999H101.432V21.0181H99.1775V35.9999ZM95.4693 27.2726H95.3965C94.8876 26.6908 93.9423 26.109 92.7062 26.109C90.1614 26.109 87.8346 28.3636 87.8346 31.1999C87.8346 34.0363 90.1614 36.2908 92.7062 36.2908C93.9423 36.2908 94.8876 35.7817 95.3965 35.1272H95.4693V35.8545C95.4693 37.8181 94.4513 38.8363 92.779 38.8363C91.3974 38.8363 90.5249 37.8181 90.2341 37.0181L88.2709 37.8181C88.8526 39.1999 90.3068 40.7999 92.779 40.7999C95.3966 40.7999 97.6506 39.2726 97.6506 35.4908V26.3999H95.542V27.2726H95.4693ZM92.9244 34.3272C91.3975 34.3272 90.0887 33.0181 90.0887 31.2726C90.0887 29.4545 91.3975 28.1454 92.9244 28.1454C94.4513 28.1454 95.6147 29.4545 95.6147 31.2726C95.6147 33.0181 94.4513 34.3272 92.9244 34.3272ZM122.154 21.0181H116.774V35.9999H119.028V30.3272H122.154C124.626 30.3272 127.099 28.509 127.099 25.6726C127.099 22.8363 124.699 21.0181 122.154 21.0181ZM122.227 28.2181H119.028V23.0545H122.227C123.899 23.0545 124.844 24.4363 124.844 25.5999C124.844 26.8363 123.899 28.2181 122.227 28.2181ZM136.115 26.109C134.515 26.109 132.843 26.8363 132.116 28.4363L134.079 29.2363C134.515 28.4363 135.315 28.1454 136.115 28.1454C137.278 28.1454 138.441 28.8726 138.441 30.109V30.2545C138.005 30.0363 137.133 29.6726 136.115 29.6726C134.006 29.6726 131.825 30.8363 131.825 33.0181C131.825 35.0545 133.57 36.2908 135.533 36.2908C137.06 36.2908 137.86 35.6363 138.369 34.8363H138.441V35.9999H140.623V30.2545C140.623 27.5635 138.66 26.109 136.115 26.109ZM135.824 34.3272C135.097 34.3272 134.079 33.9636 134.079 33.0181C134.079 31.8545 135.388 31.4181 136.478 31.4181C137.496 31.4181 137.932 31.6363 138.514 31.9272C138.296 33.309 137.133 34.3272 135.824 34.3272ZM148.548 26.3999L146.003 32.8726H145.931L143.24 26.3999H140.841L144.84 35.4908L142.586 40.5817H144.913L151.093 26.3999H148.548ZM128.335 35.9999H130.589V21.0181H128.335V35.9999Z" fill="white"/>
<path d="M12.5065 9.01804C12.1429 9.38168 11.9248 9.96349 11.9248 10.6908V37.2362C11.9248 37.9635 12.1429 38.5453 12.5065 38.909L12.5792 38.9817L27.4122 24.1453V23.9999V23.8544L12.5792 8.94531L12.5065 9.01804Z" fill="url(#paint0_linear_1_2750)"/>
<path d="M32.4292 29.1635L27.4849 24.218V23.9998V23.8544L32.4292 18.9089L32.5746 18.9817L38.4642 22.3271C40.1366 23.2726 40.1366 24.8726 38.4642 25.818L32.5746 29.0908L32.4292 29.1635Z" fill="url(#paint1_linear_1_2750)"/>
<path d="M32.5746 29.0909L27.4848 24L12.5063 38.9818C13.088 39.5636 13.9606 39.6364 14.9785 39.0546L32.5746 29.0909Z" fill="url(#paint2_linear_1_2750)"/>
<path d="M32.5746 18.909L15.0513 8.9454C14.0333 8.36358 13.0881 8.43631 12.5791 9.01813L27.4848 23.9999L32.5746 18.909Z" fill="url(#paint3_linear_1_2750)"/>
<path opacity="0.2" d="M32.4291 28.9453L14.9785 38.8362C14.0333 39.418 13.1607 39.3453 12.5791 38.8362L12.5063 38.909L12.5791 38.9817C13.1607 39.4908 14.0333 39.4908 14.9785 38.9817L32.5746 29.0908L32.4291 28.9453Z" fill="black"/>
<path opacity="0.12" d="M12.5065 38.7635C12.1429 38.3999 11.9248 37.8181 11.9248 37.0908V37.2363C11.9248 37.9635 12.1429 38.5454 12.5065 38.909L12.5792 38.8363L12.5065 38.7635Z" fill="black"/>
<path opacity="0.12" d="M38.3915 25.6L32.4292 29.0182L32.5746 29.1637L38.4642 25.8182C39.3367 25.3091 39.7003 24.7273 39.7003 24.0728C39.6276 24.5818 39.1913 25.1637 38.3915 25.6Z" fill="black"/>
<path opacity="0.25" d="M15.0514 9.1635L38.4643 22.4726C39.1915 22.909 39.6277 23.4908 39.7004 23.9999C39.7004 23.3453 39.2642 22.7635 38.4643 22.2544L15.0514 8.94532C13.3791 7.99986 11.9976 8.79986 11.9976 10.6908V10.909C11.9976 9.01805 13.3064 8.21805 15.0514 9.1635Z" fill="white"/>
<path d="M49.5161 15.6365V8.43652H51.6974C52.7881 8.43652 53.6606 8.80016 54.3877 9.4547C55.0421 10.1093 55.4057 10.982 55.4057 12.0729C55.4057 13.1638 55.0421 14.0365 54.3877 14.6911C53.7333 15.3456 52.8608 15.7093 51.6974 15.7093H49.5161V15.6365ZM50.4614 14.6911H51.7702C52.57 14.6911 53.2244 14.4729 53.7333 13.9638C54.2423 13.4547 54.4605 12.8002 54.4605 11.9274C54.4605 11.0547 54.2423 10.4002 53.7333 9.9638C53.2244 9.4547 52.57 9.23652 51.7702 9.23652H50.4614V14.6911Z" fill="white" stroke="white" stroke-width="0.2" stroke-miterlimit="10"/>
<path d="M56.7144 15.6365V8.43652H57.6596V15.6365H56.7144Z" fill="white" stroke="white" stroke-width="0.2" stroke-miterlimit="10"/>
<path d="M61.2954 15.7819C60.7864 15.7819 60.2775 15.6364 59.7685 15.2728C59.2595 14.9092 58.9687 14.4728 58.8232 13.8183L59.6958 13.4546C59.7685 13.8183 59.9866 14.1819 60.2775 14.4728C60.5683 14.7637 60.9319 14.9092 61.2954 14.9092C61.7317 14.9092 62.0225 14.8364 62.3134 14.6183C62.6042 14.4001 62.7496 14.1092 62.7496 13.7455C62.7496 13.3092 62.6042 13.0183 62.3134 12.8001C62.0225 12.5819 61.5863 12.3637 60.9319 12.2183C60.2775 12.0001 59.8412 11.7819 59.4776 11.4183C59.1141 11.1274 58.9687 10.691 58.9687 10.1819C58.9687 9.67281 59.1868 9.23644 59.5504 8.80008C59.9866 8.43644 60.4956 8.21826 61.15 8.21826C61.7317 8.21826 62.2407 8.36372 62.6042 8.65462C62.9678 8.94553 63.2586 9.30917 63.3313 9.67281L62.4588 10.0364C62.3861 9.81826 62.2407 9.60008 62.0225 9.3819C61.8044 9.16372 61.5135 9.09099 61.0773 9.09099C60.7137 9.09099 60.4229 9.16372 60.132 9.3819C59.9139 9.60008 59.7685 9.81826 59.7685 10.1092C59.7685 10.4001 59.9139 10.6183 60.132 10.7637C60.3502 10.9819 60.7137 11.1274 61.15 11.2728C61.5135 11.4183 61.8044 11.491 62.0225 11.6364C62.2407 11.7092 62.5315 11.8546 62.7496 12.0728C62.9678 12.2183 63.1859 12.4364 63.3313 12.7274C63.4767 13.0183 63.5495 13.3092 63.5495 13.6728C63.5495 14.0364 63.4767 14.3274 63.3313 14.6183C63.1859 14.9092 62.9678 15.1274 62.7496 15.2728C62.5315 15.4183 62.2407 15.5637 61.9498 15.6364C61.8771 15.7092 61.5863 15.7819 61.2954 15.7819Z" fill="white" stroke="white" stroke-width="0.2" stroke-miterlimit="10"/>
<path d="M65.9487 15.6365H65.0034V8.43652H67.4756C68.0573 8.43652 68.639 8.6547 69.0752 9.01834C69.5115 9.4547 69.7296 9.9638 69.7296 10.5456C69.7296 11.1274 69.5115 11.7093 69.0752 12.0729C68.639 12.5093 68.13 12.6547 67.4756 12.6547H65.9487V15.6365ZM65.9487 11.782H67.4756C67.8391 11.782 68.2027 11.6365 68.4208 11.4183C68.639 11.1274 68.7844 10.8365 68.7844 10.5456C68.7844 10.2547 68.639 9.9638 68.4208 9.67289C68.2027 9.38198 67.8391 9.30925 67.4756 9.30925H65.9487V11.782Z" fill="white" stroke="white" stroke-width="0.2" stroke-miterlimit="10"/>
<path d="M76.7829 14.691C76.0558 15.4183 75.1832 15.7819 74.1653 15.7819C73.1473 15.7819 72.2021 15.4183 71.5477 14.691C70.8206 13.9637 70.457 13.091 70.457 12.0001C70.457 10.9092 70.8206 10.0364 71.5477 9.30917C72.2748 8.5819 73.1473 8.21826 74.1653 8.21826C75.1832 8.21826 76.0558 8.5819 76.7829 9.30917C77.51 10.0364 77.8735 10.9092 77.8735 12.0001C77.8735 13.091 77.51 13.9637 76.7829 14.691ZM72.2021 14.0364C72.7111 14.5455 73.3655 14.8364 74.1653 14.8364C74.9651 14.8364 75.6195 14.5455 76.1285 14.0364C76.6375 13.5274 76.9283 12.8001 76.9283 12.0001C76.9283 11.2001 76.6375 10.4728 76.1285 9.96372C75.6195 9.45463 74.9651 9.16372 74.1653 9.16372C73.3655 9.16372 72.7111 9.45463 72.2021 9.96372C71.6931 10.4728 71.4023 11.2001 71.4023 12.0001C71.4023 12.8001 71.6931 13.5274 72.2021 14.0364Z" fill="white" stroke="white" stroke-width="0.2" stroke-miterlimit="10"/>
<path d="M79.1821 15.6365V8.43652H80.2728L83.7629 14.0365H83.8356L83.7629 12.6547V8.43652H84.7082V15.6365H83.7629L80.1274 9.74561H80.0547L80.1274 11.1274V15.6365H79.1821Z" fill="white" stroke="white" stroke-width="0.2" stroke-miterlimit="10"/>
<path d="M86.3804 15.6365V8.43652H87.3256V15.6365H86.3804Z" fill="white" stroke="white" stroke-width="0.2" stroke-miterlimit="10"/>
<path d="M88.9253 15.6365V8.43652H91.5429C92.1246 8.43652 92.5608 8.6547 92.9971 9.01834C93.4334 9.38198 93.6515 9.89107 93.6515 10.4002C93.6515 10.7638 93.5788 11.0547 93.3606 11.2729C93.2152 11.5638 92.9244 11.7092 92.6335 11.8547V11.9274C92.9971 12.0729 93.2879 12.2911 93.5061 12.582C93.7242 12.8729 93.8696 13.2365 93.8696 13.6002C93.8696 14.182 93.6515 14.6911 93.2152 15.0547C92.779 15.4183 92.27 15.6365 91.6883 15.6365H88.9253ZM89.8705 11.4911H91.5429C91.9064 11.4911 92.1973 11.3456 92.4154 11.1274C92.6335 10.9093 92.7063 10.6183 92.7063 10.4002C92.7063 10.1093 92.6335 9.89107 92.4154 9.67289C92.1973 9.4547 91.9064 9.30925 91.6156 9.30925H89.8705V11.4911ZM89.8705 14.6911H91.761C92.1246 14.6911 92.4154 14.5456 92.6335 14.3274C92.8517 14.1093 92.9971 13.8183 92.9971 13.5274C92.9971 13.2365 92.8517 12.9456 92.6335 12.7274C92.4154 12.5092 92.1246 12.3638 91.761 12.3638H89.9432V14.6911H89.8705Z" fill="white" stroke="white" stroke-width="0.2" stroke-miterlimit="10"/>
<path d="M95.106 15.6365V8.43652H96.0512V14.7638H99.1778V15.6365H95.106Z" fill="white" stroke="white" stroke-width="0.2" stroke-miterlimit="10"/>
<path d="M104.486 9.30922H101.214V11.5638H104.195V12.4365H101.214V14.691H104.486V15.5638H100.341V8.36377H104.559V9.30922H104.486Z" fill="white" stroke="white" stroke-width="0.2" stroke-miterlimit="10"/>
<path d="M112.557 9.30922H109.285V11.5638H112.266V12.4365H109.285V14.691H112.557V15.5638H108.339V8.36377H112.557V9.30922Z" fill="white" stroke="white" stroke-width="0.2" stroke-miterlimit="10"/>
<path d="M114.011 15.6365V8.43652H115.101L118.592 14.0365H118.664L118.592 12.6547V8.43652H119.537V15.6365H118.592L114.956 9.74561H114.883L114.956 11.1274V15.6365H114.011Z" fill="white" stroke="white" stroke-width="0.2" stroke-miterlimit="10"/>
</g>
<defs>
<linearGradient id="paint0_linear_1_2750" x1="26.1635" y1="10.4555" x2="6.01725" y2="30.5972" gradientUnits="userSpaceOnUse">
<stop stop-color="#4595D1"/>
<stop offset="0.00657445" stop-color="#4496D2"/>
<stop offset="0.2601" stop-color="#3DB7EA"/>
<stop offset="0.5122" stop-color="#48C0EC"/>
<stop offset="0.7604" stop-color="#5BC2E5"/>
<stop offset="1" stop-color="#5FC3E4"/>
</linearGradient>
<linearGradient id="paint1_linear_1_2750" x1="40.6071" y1="24.0105" x2="11.5666" y2="24.0105" gradientUnits="userSpaceOnUse">
<stop stop-color="#FFDF06"/>
<stop offset="0.4087" stop-color="#FABB0C"/>
<stop offset="0.7754" stop-color="#F5A216"/>
<stop offset="1" stop-color="#F4991A"/>
</linearGradient>
<linearGradient id="paint2_linear_1_2750" x1="29.7966" y1="26.7653" x2="2.47657" y2="54.0791" gradientUnits="userSpaceOnUse">
<stop stop-color="#E74149"/>
<stop offset="1" stop-color="#C20F62"/>
</linearGradient>
<linearGradient id="paint3_linear_1_2750" x1="8.75807" y1="0.211584" x2="20.9576" y2="12.4083" gradientUnits="userSpaceOnUse">
<stop stop-color="#319F71"/>
<stop offset="0.0685" stop-color="#2BA671"/>
<stop offset="0.4762" stop-color="#4EB16F"/>
<stop offset="0.8009" stop-color="#60B468"/>
<stop offset="1" stop-color="#63B563"/>
</linearGradient>
<clipPath id="clip0_1_2750">
<rect width="162" height="48" fill="white"/>
</clipPath>
</defs>
</svg>
