<svg width="408" height="431" viewBox="0 0 408 431" fill="none" xmlns="http://www.w3.org/2000/svg">
<circle cx="220" cy="243" r="188" fill="#541CF9"/>
<path d="M344.044 397.312H107.996V253.1C107.996 239.621 118.877 228.74 132.356 228.74H319.684C333.164 228.74 344.044 239.621 344.044 253.1V397.312Z" stroke="#1CCFC9" stroke-width="3" stroke-miterlimit="10" stroke-linecap="round"/>
<path d="M287.367 253.425H166.947C158.015 253.425 150.707 246.117 150.707 237.185V217.941C150.707 209.009 158.015 201.701 166.947 201.701H287.367C296.299 201.701 303.607 209.009 303.607 217.941V237.185C303.607 246.199 296.299 253.425 287.367 253.425Z" fill="#551CF9" stroke="#1CCFC9" stroke-width="3" stroke-miterlimit="10" stroke-linecap="round"/>
<path d="M151.844 396.256V308.56H304.744V396.256" stroke="#1CCFC9" stroke-width="3" stroke-miterlimit="10" stroke-linecap="round"/>
<path d="M152.981 331.052H303.607" stroke="#1CCFC9" stroke-width="3" stroke-miterlimit="10" stroke-linecap="round"/>
<path d="M107.996 284.525H344.044" stroke="#1CCFC9" stroke-width="3" stroke-miterlimit="10" stroke-linecap="round"/>
<path d="M254.481 272.588H343.638" stroke="#1CCFC9" stroke-width="3" stroke-miterlimit="10" stroke-linecap="round"/>
<path d="M190.414 331.377V396.987" stroke="#1CCFC9" stroke-width="3" stroke-miterlimit="10" stroke-linecap="round"/>
<path d="M227.198 308.56V396.256" stroke="#1CCFC9" stroke-width="3" stroke-miterlimit="10" stroke-linecap="round"/>
<path d="M266.498 332.108V396.987" stroke="#1CCFC9" stroke-width="3" stroke-miterlimit="10" stroke-linecap="round"/>
<path d="M266.498 339.984L300.196 382.696" stroke="#1CCFC9" stroke-width="3" stroke-miterlimit="10" stroke-linecap="round"/>
<path d="M304.744 367.024L288.991 346.724" stroke="#1CCFC9" stroke-width="3" stroke-miterlimit="10" stroke-linecap="round"/>
<path d="M191.551 331.783L216.317 356.468" stroke="#1CCFC9" stroke-width="3" stroke-miterlimit="10" stroke-linecap="round"/>
<path d="M190.414 344.126L226.386 380.097" stroke="#1CCFC9" stroke-width="3" stroke-miterlimit="10" stroke-linecap="round"/>
<path d="M151.844 345.668L174.905 368.648" stroke="#1CCFC9" stroke-width="3" stroke-miterlimit="10" stroke-linecap="round"/>
<path d="M393.495 353.464H377.742C372.14 353.464 367.592 348.916 367.592 343.314C367.592 337.711 372.14 333.164 377.742 333.164H393.495C399.098 333.164 403.645 337.711 403.645 343.314C403.645 348.998 399.098 353.464 393.495 353.464Z" stroke="#1CCFC9" stroke-width="3" stroke-miterlimit="10" stroke-linecap="round"/>
<path d="M385.7 397.068V354.032" stroke="#1CCFC9" stroke-width="3" stroke-miterlimit="10" stroke-linecap="round"/>
<path d="M2.35486 398.448H404.295" stroke="#1CCFC9" stroke-width="3" stroke-miterlimit="10" stroke-linecap="round"/>
<path d="M48.3953 397.312V302.957" stroke="#1CCFC9" stroke-width="3" stroke-miterlimit="10" stroke-linecap="round"/>
<path d="M48.3953 347.861C48.3953 347.861 76.4905 347.861 76.4905 319.766C76.4905 291.67 50.6689 246.686 50.6689 246.686C50.6689 246.686 23.7105 275.918 21.4369 314.163C19.1633 352.408 48.3953 347.861 48.3953 347.861Z" stroke="#1CCFC9" stroke-width="3" stroke-miterlimit="10" stroke-linecap="round"/>
<path d="M61.8744 65.6908C61.8744 65.6908 66.3404 52.2116 79.9008 61.2248C79.9008 61.2248 91.1064 45.472 102.393 63.4984H111.406C111.406 63.4984 118.146 63.4984 118.146 72.5116C118.146 81.5248 111.406 83.7172 111.406 83.7172H68.6952" stroke="#1CCFC9" stroke-width="3" stroke-miterlimit="10" stroke-linecap="round"/>
<path d="M52.9424 76.9775H93.38" stroke="#1CCFC9" stroke-width="3" stroke-miterlimit="10" stroke-linecap="round"/>
<path d="M183.999 236.374C182.213 236.374 180.589 236.293 179.614 236.131C178.965 236.049 178.721 235.806 178.721 235.156V217.211C178.721 216.561 179.046 216.237 179.614 216.237C180.508 216.155 182.132 215.993 183.918 215.993C188.222 215.993 191.794 217.13 191.794 221.19V221.596C191.794 223.626 190.739 225.169 188.871 225.818C190.739 226.468 191.876 228.092 191.876 230.203V230.69C191.876 235.237 188.14 236.374 183.999 236.374ZM189.277 221.19C189.277 218.591 187.085 218.023 183.837 218.023C182.944 218.023 181.888 218.104 181.157 218.104V224.763H185.298C188.465 224.763 189.277 223.22 189.277 221.515V221.19ZM189.358 230.203C189.358 228.417 188.465 226.793 185.298 226.793H181.157V234.182C182.05 234.182 183.025 234.263 183.999 234.263C187.328 234.263 189.44 233.532 189.44 230.609V230.203H189.358Z" fill="#1CCFC9"/>
<path d="M202.107 236.373C197.884 236.373 194.799 233.856 194.799 227.929V224.437C194.799 218.428 197.884 215.992 202.107 215.992C206.329 215.992 209.415 218.509 209.415 224.437V227.929C209.415 233.937 206.329 236.373 202.107 236.373ZM206.898 224.437C206.898 219.89 205.03 218.185 202.107 218.185C199.184 218.185 197.316 219.89 197.316 224.437V227.929C197.316 232.476 199.184 234.181 202.107 234.181C205.03 234.181 206.898 232.476 206.898 227.929V224.437Z" fill="#1CCFC9"/>
<path d="M218.59 236.373C216.56 236.373 214.449 236.211 213.718 236.13C213.394 236.048 213.15 235.886 213.15 235.48V216.966C213.15 216.56 213.394 216.317 213.718 216.317C214.53 216.154 216.56 216.073 218.59 216.073C223.544 216.073 226.792 218.672 226.792 224.437V228.091C226.792 233.775 223.625 236.373 218.59 236.373ZM224.356 224.356C224.356 219.484 221.838 218.103 218.672 218.103C217.372 218.103 216.56 218.103 215.667 218.184V234.262C216.56 234.343 217.372 234.343 218.672 234.343C221.92 234.343 224.356 232.882 224.356 228.091V224.356Z" fill="#1CCFC9"/>
<path d="M241.408 236.292C240.352 236.373 237.754 236.455 236.13 236.455C232.313 236.455 230.364 234.993 230.364 231.42V221.027C230.364 217.454 232.313 215.992 236.13 215.992C237.754 215.992 240.271 216.073 241.408 216.155C241.57 216.155 241.651 216.398 241.651 216.561V217.941C241.651 218.103 241.57 218.266 241.326 218.266H236.13C233.288 218.266 232.8 218.997 232.8 221.108V224.843H241.164C241.489 224.843 241.732 225.087 241.732 225.411V226.467C241.732 226.792 241.489 227.035 241.164 227.035H232.882V231.583C232.882 233.613 233.369 234.425 236.211 234.425H241.408C241.57 234.425 241.732 234.587 241.732 234.749V236.13C241.732 236.049 241.57 236.211 241.408 236.292Z" fill="#1CCFC9"/>
<path d="M257.079 235.967C255.78 236.211 254.237 236.373 251.72 236.373C248.31 236.373 244.737 234.181 244.737 228.01V224.356C244.737 217.778 248.553 215.911 251.964 215.911C254.481 215.911 256.024 216.154 257.079 216.317C257.323 216.317 257.566 216.479 257.566 216.723V218.103C257.566 218.266 257.485 218.347 257.242 218.347H257.16C255.536 218.184 254.318 218.185 252.045 218.185C249.528 218.185 247.254 219.565 247.254 224.356V228.01C247.254 232.476 249.284 234.181 251.801 234.181C253.425 234.181 254.562 234.1 255.212 234.018V226.304C255.212 225.98 255.374 225.736 255.699 225.736H257.16C257.404 225.736 257.648 225.98 257.648 226.304V235.399C257.566 235.724 257.404 235.967 257.079 235.967Z" fill="#1CCFC9"/>
<path d="M275.512 236.211H273.888C273.644 236.211 273.482 236.048 273.4 235.805L271.614 229.634H264.712L263.007 235.805C262.926 236.048 262.763 236.211 262.52 236.211H260.896C260.652 236.211 260.408 236.048 260.408 235.805C260.408 235.724 260.408 235.642 260.408 235.642L265.362 218.103C265.849 216.479 267.067 216.073 268.122 216.073C269.097 216.073 270.396 216.479 270.883 218.103L275.836 235.724C275.836 235.805 275.836 235.886 275.836 235.886C275.999 236.048 275.836 236.211 275.512 236.211ZM268.772 218.59C268.691 218.266 268.528 218.103 268.285 218.103C267.96 218.103 267.798 218.266 267.716 218.59L265.28 227.441H271.208L268.772 218.59Z" fill="#1CCFC9"/>
<path d="M252.532 101.744C247.498 91.7562 237.429 85.585 226.223 85.585C221.595 85.585 217.21 86.6406 213.069 88.7518C206.086 92.2434 200.97 98.3334 198.453 105.885C196.017 113.355 196.585 121.475 199.996 128.215C203.812 135.767 221.189 156.716 223.138 159.071L226.223 162.725L229.228 158.99C230.04 158.015 248.229 135.848 252.37 128.296C256.917 120.176 256.917 110.513 252.532 101.744Z" stroke="#1CCFC9" stroke-width="3" stroke-miterlimit="10"/>
<path d="M226.305 101.744C218.997 101.744 213.069 107.671 213.069 114.979C213.069 122.287 218.997 128.215 226.305 128.215C233.613 128.215 239.54 122.287 239.54 114.979C239.54 107.671 233.613 101.744 226.305 101.744Z" stroke="#1CCFC9" stroke-width="3" stroke-miterlimit="10"/>
<path d="M370.272 195.773H388.948" stroke="#1CCFC9" stroke-width="3" stroke-miterlimit="10" stroke-linecap="round"/>
<path d="M379.61 205.111V186.435" stroke="#1CCFC9" stroke-width="3" stroke-miterlimit="10" stroke-linecap="round"/>
<path d="M314.488 19.8127H333.164" stroke="#1CCFC9" stroke-width="3" stroke-miterlimit="10" stroke-linecap="round"/>
<path d="M323.826 29.1509V10.4749" stroke="#1CCFC9" stroke-width="3" stroke-miterlimit="10" stroke-linecap="round"/>
<path d="M95.2477 161.101H113.924" stroke="#1CCFC9" stroke-width="3" stroke-miterlimit="10" stroke-linecap="round"/>
<path d="M104.586 170.439V151.763" stroke="#1CCFC9" stroke-width="3" stroke-miterlimit="10" stroke-linecap="round"/>
</svg>
