<svg width="552" height="376" viewBox="0 0 552 376" fill="none" xmlns="http://www.w3.org/2000/svg">
<circle cx="277" cy="188" r="188" fill="#541CF9"/>
<path d="M263.394 167.092H137.877L120.796 252.092H130.603H220.747" stroke="#1CCFC9" stroke-width="3" stroke-miterlimit="10" stroke-linecap="round"/>
<path d="M133.028 347.964V253.3" stroke="#1CCFC9" stroke-width="3" stroke-miterlimit="10" stroke-linecap="round"/>
<path d="M152.533 347.965V266.588H201.242V347.965" stroke="#1CCFC9" stroke-width="3" stroke-miterlimit="10" stroke-linecap="round"/>
<path d="M2 349.172H549.804" stroke="#1CCFC9" stroke-width="3" stroke-miterlimit="10" stroke-linecap="round"/>
<path d="M174.463 278.778H162.231V305.464H174.463V278.778Z" stroke="#1CCFC9" stroke-width="3" stroke-miterlimit="10" stroke-linecap="round"/>
<path d="M191.544 278.778H179.312V305.464H191.544V278.778Z" stroke="#1CCFC9" stroke-width="3" stroke-miterlimit="10" stroke-linecap="round"/>
<path d="M174.463 315.238H162.231V340.716H174.463V315.238Z" stroke="#1CCFC9" stroke-width="3" stroke-miterlimit="10" stroke-linecap="round"/>
<path d="M191.544 315.238H179.312V340.716H191.544V315.238Z" stroke="#1CCFC9" stroke-width="3" stroke-miterlimit="10" stroke-linecap="round"/>
<path d="M133.028 315.238H81.895" stroke="#1CCFC9" stroke-width="3" stroke-miterlimit="10" stroke-linecap="round"/>
<path d="M81.895 303.817V347.965" stroke="#1CCFC9" stroke-width="3" stroke-miterlimit="10" stroke-linecap="round"/>
<path d="M101.4 303.817V347.965" stroke="#1CCFC9" stroke-width="3" stroke-miterlimit="10" stroke-linecap="round"/>
<path d="M118.371 303.817V347.965" stroke="#1CCFC9" stroke-width="3" stroke-miterlimit="10" stroke-linecap="round"/>
<path d="M416.903 315.238H365.77" stroke="#1CCFC9" stroke-width="3" stroke-miterlimit="10" stroke-linecap="round"/>
<path d="M381.529 303.817V347.965" stroke="#1CCFC9" stroke-width="3" stroke-miterlimit="10" stroke-linecap="round"/>
<path d="M401.034 303.817V347.965" stroke="#1CCFC9" stroke-width="3" stroke-miterlimit="10" stroke-linecap="round"/>
<path d="M418.115 303.817V347.965" stroke="#1CCFC9" stroke-width="3" stroke-miterlimit="10" stroke-linecap="round"/>
<path d="M293.81 220.574C300.565 220.574 306.042 215.116 306.042 208.384C306.042 201.652 300.565 196.194 293.81 196.194C287.054 196.194 281.577 201.652 281.577 208.384C281.577 215.116 287.054 220.574 293.81 220.574Z" stroke="#1CCFC9" stroke-width="3" stroke-miterlimit="10" stroke-linecap="round"/>
<path d="M220.747 229.03V347.964" stroke="#1CCFC9" stroke-width="3" stroke-miterlimit="10" stroke-linecap="round"/>
<path d="M364.889 224.967V347.964" stroke="#1CCFC9" stroke-width="3" stroke-miterlimit="10" stroke-linecap="round"/>
<path d="M327.972 271.53H259.758V329.844H327.972V271.53Z" stroke="#1CCFC9" stroke-width="3" stroke-miterlimit="10" stroke-linecap="round"/>
<path d="M259.758 271.53L275.627 255.716H313.315L327.972 271.53" stroke="#1CCFC9" stroke-width="3" stroke-miterlimit="10" stroke-linecap="round"/>
<path d="M276.178 255.716V329.735" stroke="#1CCFC9" stroke-width="3" stroke-miterlimit="10" stroke-linecap="round"/>
<path d="M313.315 255.716V329.735" stroke="#1CCFC9" stroke-width="3" stroke-miterlimit="10" stroke-linecap="round"/>
<path d="M203.666 147.654H184.161V179.172H203.666V147.654Z" fill="#551CF9" stroke="#1CCFC9" stroke-width="3" stroke-miterlimit="10"/>
<path d="M208.515 137.88H179.312V147.544H208.515V137.88Z" stroke="#1CCFC9" stroke-width="3" stroke-miterlimit="10" stroke-linecap="round"/>
<path d="M310.891 315.238L280.475 284.818" stroke="#1CCFC9" stroke-width="3" stroke-miterlimit="10" stroke-linecap="round"/>
<path d="M296.234 286.026L310.891 300.632" stroke="#1CCFC9" stroke-width="3" stroke-miterlimit="10" stroke-linecap="round"/>
<path d="M449.853 347.965V244.734" stroke="#1CCFC9" stroke-width="3" stroke-miterlimit="10" stroke-linecap="round"/>
<path d="M449.853 293.384C449.853 293.384 480.268 293.384 480.268 263.074C480.268 232.764 452.277 184.114 452.277 184.114C452.277 184.114 423.074 215.632 420.65 256.924C418.226 298.216 449.853 293.384 449.853 293.384Z" stroke="#1CCFC9" stroke-width="3" stroke-miterlimit="10" stroke-linecap="round"/>
<path d="M47.7329 347.965V245.942" stroke="#1CCFC9" stroke-width="3" stroke-miterlimit="10" stroke-linecap="round"/>
<path d="M47.733 294.592C47.733 294.592 78.1482 294.592 78.1482 264.282C78.1482 233.972 50.1574 185.322 50.1574 185.322C50.1574 185.322 20.9544 216.84 18.53 258.132C16.1056 299.424 47.733 294.592 47.733 294.592Z" stroke="#1CCFC9" stroke-width="3" stroke-miterlimit="10" stroke-linecap="round"/>
<path d="M198.817 232.654L292.597 139.198L390.124 236.278H376.68L294.471 154.353L213.474 235.07H196.393L198.817 232.654Z" stroke="#1CCFC9" stroke-width="3" stroke-miterlimit="10" stroke-linecap="round"/>
<path d="M308.356 28.7196C302.846 17.9573 291.936 11.2583 279.814 11.2583C274.745 11.2583 270.006 12.3565 265.598 14.6627C257.995 18.3966 252.485 24.9857 249.73 33.2222C247.085 41.239 247.746 50.0246 251.383 57.3825C255.57 65.5091 274.304 88.1319 276.508 90.6577L279.814 94.6112L283.12 90.5479C284.002 89.4497 303.728 65.5091 308.246 57.3825C313.095 48.5969 313.095 38.1641 308.356 28.7196Z" stroke="#1CCFC9" stroke-width="3" stroke-miterlimit="10"/>
<path d="M279.924 28.7195C271.99 28.7195 265.598 35.089 265.598 42.996C265.598 50.903 271.99 57.2725 279.924 57.2725C287.859 57.2725 294.25 50.903 294.25 42.996C294.25 35.089 287.859 28.7195 279.924 28.7195Z" stroke="#1CCFC9" stroke-width="3" stroke-miterlimit="10"/>
<path d="M469.689 94.6113H489.966" stroke="#1CCFC9" stroke-width="3" stroke-miterlimit="10" stroke-linecap="round"/>
<path d="M479.827 104.715V84.5078" stroke="#1CCFC9" stroke-width="3" stroke-miterlimit="10" stroke-linecap="round"/>
<path d="M161.68 84.947H181.956" stroke="#1CCFC9" stroke-width="3" stroke-miterlimit="10" stroke-linecap="round"/>
<path d="M171.818 95.0505V74.8438" stroke="#1CCFC9" stroke-width="3" stroke-miterlimit="10" stroke-linecap="round"/>
</svg>
