<svg width="427" height="376" viewBox="0 0 427 376" fill="none" xmlns="http://www.w3.org/2000/svg">
<circle cx="239" cy="188" r="188" fill="#541CF9"/>
<path d="M247.95 230.634H264.492V208.945H155.351L158.048 230.992L169.195 230.634" fill="#551CF9"/>
<path d="M247.95 230.634H264.492V208.945H155.351L158.048 230.992L169.195 230.634" stroke="#1CCFC9" stroke-width="3" stroke-miterlimit="10" stroke-linecap="round"/>
<path d="M151.934 290.861H303.868L361.586 242.464L333.536 182.595L351.517 185.284L354.214 150.868C354.214 150.868 318.253 149.434 312.679 161.982C307.105 174.35 318.433 201.237 322.388 213.068C326.524 225.436 338.93 259.851 298.834 272.399C258.738 284.767 246.331 266.842 246.331 266.842C246.331 266.842 236.622 251.427 247.77 230.813H169.195L151.934 290.861Z" stroke="#1CCFC9" stroke-width="3" stroke-miterlimit="10" stroke-linecap="round"/>
<path d="M276.898 255.729C276.898 255.729 268.627 269.531 274.201 272.219C279.775 274.908 306.745 272.936 312.499 266.304C318.433 259.672 298.295 254.474 298.295 254.474L276.898 255.729Z" stroke="#1CCFC9" stroke-width="3" stroke-miterlimit="10" stroke-linecap="round"/>
<path d="M168.117 125.953H144.562V149.434H168.117V125.953Z" stroke="#1CCFC9" stroke-width="3" stroke-miterlimit="10" stroke-linecap="round"/>
<path d="M244.533 115.736C244.533 115.736 216.124 159.293 217.563 191.02C219.001 222.747 268.807 211.634 274.201 217.19C279.775 222.747 277.437 255.729 277.437 255.729L298.834 254.115L303.149 213.068C303.149 213.068 305.846 196.577 282.472 195.143C258.918 193.709 250.647 191.02 252.085 181.341C253.523 171.661 264.491 151.048 264.491 151.048C264.491 151.048 272.762 171.661 278.336 173.095C283.91 174.529 307.285 178.652 307.285 178.652C307.285 178.652 323.827 182.775 325.265 173.095C326.704 163.416 315.556 160.727 315.556 160.727L300.452 156.963C300.452 156.963 287.866 155.17 286.428 148.359C285.349 141.368 259.277 96.0186 244.533 115.736Z" fill="#551CF9" stroke="#1CCFC9" stroke-width="3" stroke-miterlimit="10" stroke-linecap="round"/>
<path d="M265.211 111.075C277.822 111.075 288.046 100.883 288.046 88.3109C288.046 75.7384 277.822 65.5464 265.211 65.5464C252.599 65.5464 242.376 75.7384 242.376 88.3109C242.376 100.883 252.599 111.075 265.211 111.075Z" stroke="#1CCFC9" stroke-width="3" stroke-miterlimit="10" stroke-linecap="round"/>
<path d="M243.095 84.9053H306.745" stroke="#1CCFC9" stroke-width="3" stroke-miterlimit="10" stroke-linecap="round"/>
<path d="M197.784 125.953H114.895V208.586H197.784V125.953Z" stroke="#1CCFC9" stroke-width="3" stroke-miterlimit="10" stroke-linecap="round"/>
<path d="M180.883 328.145C199.949 328.145 215.405 312.737 215.405 293.729C215.405 274.722 199.949 259.314 180.883 259.314C161.817 259.314 146.36 274.722 146.36 293.729C146.36 312.737 161.817 328.145 180.883 328.145Z" stroke="#1CCFC9" stroke-width="3" stroke-miterlimit="10" stroke-linecap="round"/>
<path d="M180.883 309.503C189.621 309.503 196.706 302.441 196.706 293.729C196.706 285.018 189.621 277.956 180.883 277.956C172.144 277.956 165.06 285.018 165.06 293.729C165.06 302.441 172.144 309.503 180.883 309.503Z" stroke="#1CCFC9" stroke-width="3" stroke-miterlimit="10" stroke-linecap="round"/>
<path d="M370.037 328.145C389.103 328.145 404.559 312.737 404.559 293.729C404.559 274.722 389.103 259.314 370.037 259.314C350.97 259.314 335.514 274.722 335.514 293.729C335.514 312.737 350.97 328.145 370.037 328.145Z" stroke="#1CCFC9" stroke-width="3" stroke-miterlimit="10" stroke-linecap="round"/>
<path d="M370.036 309.503C378.775 309.503 385.859 302.441 385.859 293.729C385.859 285.018 378.775 277.956 370.036 277.956C361.298 277.956 354.214 285.018 354.214 293.729C354.214 302.441 361.298 309.503 370.036 309.503Z" stroke="#1CCFC9" stroke-width="3" stroke-miterlimit="10" stroke-linecap="round"/>
<path d="M323.647 301.258L398.266 257.163C398.266 257.163 372.913 227.407 336.053 254.474C315.376 269.531 323.647 301.258 323.647 301.258Z" fill="#551CF9" stroke="#1CCFC9" stroke-width="3" stroke-miterlimit="10" stroke-linecap="round"/>
<path d="M129.099 291.399H228.711C228.711 291.399 242.555 241.747 187.176 241.747C131.796 241.747 129.099 291.399 129.099 291.399Z" fill="#551CF9" stroke="#1CCFC9" stroke-width="3" stroke-miterlimit="10" stroke-linecap="round"/>
<path d="M218.821 175.784H251.905" stroke="#1CCFC9" stroke-width="3" stroke-miterlimit="10" stroke-linecap="round"/>
<path d="M153.732 277.059H55.3794" stroke="#1CCFC9" stroke-width="3" stroke-miterlimit="10" stroke-linecap="round"/>
<path d="M153.732 259.314L98.3525 258.597" stroke="#1CCFC9" stroke-width="3" stroke-miterlimit="10" stroke-linecap="round"/>
<path d="M125.503 242.464H10.7881" stroke="#1CCFC9" stroke-width="3" stroke-miterlimit="10" stroke-linecap="round"/>
<path d="M125.503 224.719L60.9534 224.002" stroke="#1CCFC9" stroke-width="3" stroke-miterlimit="10" stroke-linecap="round"/>
<path d="M143.843 184.926H28.9482" stroke="#1CCFC9" stroke-width="3" stroke-miterlimit="10" stroke-linecap="round"/>
<path d="M143.843 167.18L79.1135 166.463" stroke="#1CCFC9" stroke-width="3" stroke-miterlimit="10" stroke-linecap="round"/>
</svg>
