<svg width="28" height="32" viewBox="0 0 28 32" fill="none" xmlns="http://www.w3.org/2000/svg">
<path d="M27.6825 26.5546C27.6825 17.0196 24.094 8.40726 18.1474 1.94802C17.1221 0.820221 15.4817 0 13.8412 0C12.0983 0 10.5603 0.717694 9.53507 1.94802C3.58846 8.40726 0 17.1221 0 26.5546H13.8412C15.6867 28.8102 17.0196 30.4507 18.5575 31.2709C20.0954 32.0911 21.8384 32.0911 23.1712 31.8861C24.5041 31.681 25.3243 31.0659 26.042 30.4507C26.6572 29.8355 27.0673 29.1178 27.3749 28.5027C27.5799 27.785 27.6825 27.1698 27.6825 26.5546Z" fill="#541CF9"/>
<path d="M13.8412 26.5547C11.9957 28.8103 10.6629 30.4507 9.12496 31.2709C7.58704 32.0912 5.84407 32.0912 4.51121 31.8861C3.17835 31.681 2.35813 31.0659 1.64044 30.4507C1.02528 29.8356 0.615166 29.1179 0.307583 28.5027C0.102528 27.8875 0 27.1698 0 26.5547C0 25.9395 0.102528 25.3243 0.307583 24.6066C0.512638 23.9915 1.02528 23.2738 1.64044 22.6586C2.25561 22.0435 3.17835 21.5308 4.51121 21.2232C5.84407 21.0182 7.58704 21.0182 9.12496 21.8384C10.6629 22.6586 11.9957 24.2991 13.8412 26.5547Z" fill="#1CCFC9"/>
<path d="M17.1222 10.1503C17.1222 8.30477 15.6868 6.86938 13.8413 6.86938C11.9958 6.86938 10.5604 8.30477 10.5604 10.1503C10.5604 11.9958 11.9958 13.4311 13.8413 13.4311C15.6868 13.4311 17.1222 11.9958 17.1222 10.1503Z" fill="white"/>
</svg>
