<svg width="28" height="32" viewBox="0 0 28 32" fill="none" xmlns="http://www.w3.org/2000/svg">
<path d="M27.5 26.6C27.5 17.3 24 8.90001 18.2 2.60001C17.2 1.50001 15.6 0.700012 14 0.700012C12.3 0.700012 10.8 1.40001 9.8 2.60001C4 8.90001 0.5 17.4 0.5 26.6H14C15.8 28.8 17.1 30.4 18.6 31.2C20.1 32 21.8 32 23.1 31.8C24.4 31.6 25.2 31 25.9 30.4C26.5 29.8 26.9 29.1 27.2 28.5C27.4 27.8 27.5 27.2 27.5 26.6Z" fill="#B2B2B2"/>
<path d="M14 26.6C12.2 28.8 10.9 30.4 9.4 31.2C7.9 32 6.2 32 4.9 31.8C3.6 31.6 2.8 31 2.1 30.4C1.5 29.8 1.1 29.1 0.8 28.5C0.6 27.9 0.5 27.2 0.5 26.6C0.5 26 0.6 25.4 0.8 24.7C1 24.1 1.5 23.4 2.1 22.8C2.7 22.2 3.6 21.7 4.9 21.4C6.2 21.2 7.9 21.2 9.4 22C10.9 22.8 12.2 24.4 14 26.6Z" fill="#CCCCCC"/>
<path d="M17.2001 10.6C17.2001 8.80003 15.8 7.40002 14 7.40002C12.2 7.40002 10.8 8.80003 10.8 10.6C10.8 12.4 12.2 13.8 14 13.8C15.8 13.8 17.2001 12.4 17.2001 10.6Z" fill="white"/>
</svg>
