<svg width="24" height="24" viewBox="0 0 24 24" fill="none" xmlns="http://www.w3.org/2000/svg">
<g clip-path="url(#clip0_1_5588)">
<path d="M12 22C17.52 22 22 17.52 22 12C22 6.48 17.52 2 12 2C6.48 2 2 6.48 2 12C2 17.52 6.48 22 12 22ZM12 7C12.55 7 13 7.45 13 8L13 12C13 12.55 12.55 13 12 13C11.45 13 11 12.55 11 12L11 8C11 7.45 11.45 7 12 7ZM11 15L13 15L13 17L11 17L11 15Z" fill="#DA1E28"/>
</g>
<defs>
<clipPath id="clip0_1_5588">
<rect width="24" height="24" fill="white" transform="translate(24 24) rotate(180)"/>
</clipPath>
</defs>
</svg>
