<svg xmlns="http://www.w3.org/2000/svg" width="28" height="32" fill="none" viewBox="0 0 28 32"><path fill="#541CF9" d="M27.683 26.555c0-9.535-3.589-18.148-9.536-24.607C17.122.82 15.482 0 13.841 0c-1.743 0-3.28.718-4.306 1.948C3.588 8.408 0 17.122 0 26.555h13.841c1.846 2.255 3.179 3.896 4.717 4.716 1.537.82 3.28.82 4.613.615 1.333-.205 2.153-.82 2.871-1.435.615-.616 1.025-1.333 1.333-1.948.205-.718.308-1.333.308-1.948Z"/><path fill="#1CCFC9" d="M13.841 26.555c-1.845 2.255-3.178 3.896-4.716 4.716-1.538.82-3.28.82-4.614.615-1.333-.205-2.153-.82-2.87-1.435-.616-.615-1.026-1.333-1.333-1.948A6.438 6.438 0 0 1 0 26.555c0-.616.103-1.23.308-1.948.205-.616.717-1.333 1.332-1.948.616-.615 1.538-1.128 2.871-1.436 1.333-.205 3.076-.205 4.614.615 1.538.82 2.87 2.461 4.716 4.717Z"/><path fill="#fff" d="M17.122 10.15c0-1.845-1.435-3.28-3.28-3.28-1.846 0-3.282 1.435-3.282 3.28 0 1.846 1.436 3.281 3.281 3.281 1.846 0 3.281-1.435 3.281-3.28Z"/></svg>